<?xml version="1.0" encoding="UTF-8" standalone="no"?>
<!-- Created with Inkscape (http://www.inkscape.org/) -->

<svg
   xmlns:dc="http://purl.org/dc/elements/1.1/"
   xmlns:cc="http://creativecommons.org/ns#"
   xmlns:rdf="http://www.w3.org/1999/02/22-rdf-syntax-ns#"
   xmlns:svg="http://www.w3.org/2000/svg"
   xmlns="http://www.w3.org/2000/svg"
   xmlns:sodipodi="http://sodipodi.sourceforge.net/DTD/sodipodi-0.dtd"
   xmlns:inkscape="http://www.inkscape.org/namespaces/inkscape"
   version="1.1"
   id="svg130186"
   xml:space="preserve"
   width="800"
   height="800"
   viewBox="0 0 800 800"
   sodipodi:docname="tribal-shape-vector-6-publicdomainvectors.org.svg"
   inkscape:version="0.92.4 (5da689c313, 2019-01-14)"><metadata
     id="metadata130192"><rdf:RDF><cc:Work
         rdf:about=""><dc:format>image/svg+xml</dc:format><dc:type
           rdf:resource="http://purl.org/dc/dcmitype/StillImage" /><dc:title></dc:title></cc:Work></rdf:RDF></metadata><defs
     id="defs130190"><clipPath
       clipPathUnits="userSpaceOnUse"
       id="clipPath130202"><path
         d="M 0,600 H 600 V 0 H 0 Z"
         id="path130200"
         inkscape:connector-curvature="0" /></clipPath></defs><sodipodi:namedview
     pagecolor="#ffffff"
     bordercolor="#666666"
     borderopacity="1"
     objecttolerance="10"
     gridtolerance="10"
     guidetolerance="10"
     inkscape:pageopacity="0"
     inkscape:pageshadow="2"
     inkscape:window-width="797"
     inkscape:window-height="480"
     id="namedview130188"
     showgrid="false"
     inkscape:zoom="0.295"
     inkscape:cx="400"
     inkscape:cy="400"
     inkscape:window-x="0"
     inkscape:window-y="0"
     inkscape:window-maximized="0"
     inkscape:current-layer="g130194" /><g
     id="g130194"
     inkscape:groupmode="layer"
     inkscape:label="tribal-shape-vector-6-publicdomainvectors.org"
     transform="matrix(1.3333333,0,0,-1.3333333,0,800)"><g
       id="g130196"><g
         id="g130198"
         clip-path="url(#clipPath130202)"><path
           d="m 560.783,263.5 c -0.929,0.424 -1.904,0.738 -2.906,0.93 -7.4,1.908 -14.969,3.091 -22.596,3.531 -11.957,1.336 -24.029,1.287 -35.976,-0.143 -3.959,-0.31 -7.881,-0.992 -11.711,-2.033 -6.27,-0.787 -12.479,-1.978 -18.594,-3.566 -11.293,-3.065 -22.387,-6.819 -33.221,-11.239 -1.023,-0.421 -2.045,-0.855 -3.06,-1.298 0.32,-1.061 0.65,-2.119 0.99,-3.174 1.746,-5.33 3.648,-10.608 5.701,-15.824 -5.445,-1.336 -10.851,-2.832 -16.211,-4.485 -1.058,-0.33 -2.113,-0.672 -3.164,-1.023 0.225,-1.086 0.461,-2.17 0.707,-3.25 2.649,-11.397 5.988,-22.621 10.008,-33.612 2.234,-5.908 4.848,-11.666 7.824,-17.238 1.364,-3.728 3.072,-7.326 5.104,-10.736 5.73,-10.58 12.662,-20.463 20.658,-29.455 4.764,-5.973 10.1,-11.469 15.93,-16.408 0.736,-0.709 1.554,-1.323 2.437,-1.836 0.162,-0.073 0.338,-0.094 0.51,-0.059 0.058,0.012 0.107,0.049 0.135,0.102 0.029,0.06 0.033,0.129 0.013,0.193 l -0.355,0.578 c -3.008,3.44 -5.842,7.035 -8.486,10.76 -1.959,2.381 -3.774,4.877 -5.432,7.478 -5.029,8.041 -9.549,16.395 -13.531,25.006 -3.604,8.545 -6.871,17.231 -9.799,26.033 -1.705,7.811 -3.469,15.608 -5.287,23.391 -0.461,2.684 -0.899,5.369 -1.315,8.061 2.533,0.996 5.076,1.968 7.627,2.921 3.932,1.206 7.86,2.428 11.781,3.665 -1.255,3.916 -2.525,7.828 -3.81,11.734 -0.697,2.633 -1.369,5.269 -2.02,7.914 2.436,1.215 4.883,2.408 7.34,3.582 7.405,3.01 14.789,6.072 22.149,9.189 8.879,2.694 17.857,5.041 26.912,7.034 9.33,1.72 18.761,2.853 28.23,3.392 3.082,0.147 6.168,0.108 9.242,-0.117 4.569,-0.008 9.141,-0.246 13.686,-0.715 l 0.678,0.043 c 0.064,0.022 0.115,0.065 0.148,0.123 0.027,0.053 0.029,0.114 0.006,0.168 -0.07,0.162 -0.189,0.293 -0.342,0.383 M 425.396,152.09 c -3.166,6.435 -6.212,12.928 -9.138,19.474 -2.569,7.151 -5.014,14.34 -7.342,21.573 -3.26,11.662 -5.883,23.486 -7.867,35.424 -10.594,5.845 -20.869,12.259 -30.779,19.218 -6.045,4.604 -12.008,9.305 -17.895,14.108 -0.908,0.861 -1.812,1.726 -2.713,2.595 -0.234,0.514 -0.469,1.032 -0.701,1.549 0.564,0.059 1.129,0.117 1.691,0.174 1.203,-0.342 2.407,-0.687 3.608,-1.039 7.113,-2.668 14.178,-5.455 21.197,-8.361 11.002,-5.063 21.715,-10.713 32.098,-16.928 2.742,1.041 5.498,2.047 8.265,3.016 -0.806,2.818 -1.578,5.648 -2.312,8.488 -11.069,4.89 -21.867,10.373 -32.354,16.432 -6.425,4.052 -12.781,8.21 -19.066,12.476 -0.981,0.779 -1.957,1.561 -2.932,2.346 -0.279,0.494 -0.558,0.988 -0.836,1.482 0.557,0.11 1.116,0.217 1.672,0.322 1.229,-0.234 2.457,-0.472 3.684,-0.716 7.32,-2.032 14.603,-4.186 21.851,-6.463 11.405,-4.072 22.575,-8.758 33.465,-14.031 10.891,5.273 22.059,9.959 33.463,14.031 7.25,2.277 14.531,4.431 21.852,6.463 7.035,1.392 14.095,2.654 21.175,3.785 0.512,0.076 1.024,0.148 1.536,0.221 l -50.395,4.289 c -7.607,-1.403 -15.127,-3.284 -22.508,-5.631 -1.687,-0.688 -3.396,-1.319 -5.123,-1.891 -1.728,0.572 -3.437,1.203 -5.125,1.891 -11.402,3.629 -23.133,6.138 -35.019,7.496 -3.897,0.279 -7.787,0.619 -11.674,1.023 -2.391,0.139 -4.787,0.205 -7.182,0.203 -2.396,0.002 -4.793,-0.064 -7.183,-0.203 -3.885,-0.404 -7.778,-0.744 -11.672,-1.023 -1.033,-0.117 -2.065,-0.244 -3.094,-0.379 0.562,-0.873 1.135,-1.742 1.713,-2.606 2.308,-3.148 4.566,-6.335 6.773,-9.56 1.119,-1.484 2.274,-2.942 3.459,-4.373 -1.853,0.142 -3.711,0.242 -5.568,0.297 -3.906,-0.059 -7.813,-0.055 -11.717,0.011 -1.039,-0.027 -2.078,-0.062 -3.115,-0.105 0.484,-0.92 0.976,-1.834 1.476,-2.746 2.022,-3.342 3.993,-6.715 5.905,-10.121 1.267,-2.031 2.597,-4.026 3.982,-5.981 1.383,-1.957 2.82,-3.875 4.315,-5.746 2.572,-2.939 5.097,-5.92 7.574,-8.939 7.973,-8.922 16.797,-17.051 26.344,-24.264 1.535,-0.98 3.037,-2.012 4.502,-3.092 0.531,-1.74 1.002,-3.5 1.416,-5.275 2.343,-7.381 5.15,-14.606 8.398,-21.627 l 32.602,-38.666 c -0.239,0.459 -0.473,0.918 -0.706,1.379 m -28.005,225.212 c -1.627,-0.817 -3.282,-1.579 -4.961,-2.286 -10.629,-5.497 -20.698,-12.016 -30.065,-19.463 -2.951,-2.556 -5.943,-5.068 -8.976,-7.53 -1.789,-1.593 -3.532,-3.24 -5.223,-4.936 -1.695,-1.692 -3.344,-3.433 -4.936,-5.222 -2.46,-3.033 -4.972,-6.026 -7.529,-8.978 -0.648,-0.812 -1.287,-1.632 -1.92,-2.455 1.016,-0.219 2.033,-0.429 3.053,-0.631 3.859,-0.594 7.711,-1.251 11.551,-1.969 1.84,-0.259 3.685,-0.474 5.537,-0.648 -1.412,-1.211 -2.795,-2.452 -4.147,-3.726 -2.72,-2.804 -5.486,-5.564 -8.293,-8.278 -0.716,-0.753 -1.425,-1.513 -2.128,-2.278 0.992,-0.307 1.988,-0.606 2.984,-0.897 3.793,-0.933 7.57,-1.925 11.332,-2.981 2.334,-0.54 4.684,-1.011 7.047,-1.414 2.359,-0.405 4.732,-0.746 7.113,-1.013 3.899,-0.259 7.789,-0.581 11.678,-0.964 11.945,-0.672 23.931,-0.18 35.783,1.47 1.779,0.393 3.57,0.726 5.369,0.998 1.608,-0.856 3.184,-1.767 4.731,-2.729 6.879,-3.563 13.97,-6.686 21.234,-9.354 l 50.393,-4.289 c -0.493,0.156 -0.985,0.316 -1.475,0.476 -6.789,2.313 -13.535,4.75 -20.232,7.311 -6.872,3.238 -13.686,6.592 -20.446,10.062 -10.551,5.941 -20.767,12.446 -30.611,19.484 -11.625,-3.356 -23.426,-6.088 -35.354,-8.174 -7.529,-1.019 -15.07,-1.912 -22.629,-2.678 -1.251,-0.032 -2.501,-0.06 -3.751,-0.083 -0.532,0.198 -1.063,0.398 -1.594,0.599 0.357,0.441 0.717,0.881 1.074,1.319 1.094,0.61 2.188,1.216 3.285,1.818 6.916,3.142 13.883,6.166 20.903,9.075 11.357,4.199 22.927,7.778 34.664,10.727 1.203,2.675 2.441,5.335 3.714,7.977 -2.566,1.422 -5.111,2.878 -7.638,4.367 -11.283,-4.369 -22.799,-8.128 -34.496,-11.258 -7.411,-1.678 -14.844,-3.232 -22.305,-4.661 -1.244,-0.141 -2.488,-0.28 -3.731,-0.413 -0.546,0.152 -1.093,0.303 -1.64,0.457 0.318,0.47 0.635,0.941 0.955,1.408 1.033,0.704 2.07,1.404 3.111,2.099 6.614,3.74 13.285,7.366 20.022,10.882 10.943,5.185 22.154,9.769 33.584,13.741 3.972,11.43 8.556,22.641 13.742,33.584 3.516,6.736 7.141,13.408 10.881,20.022 3.988,5.958 8.09,11.842 12.297,17.649 0.308,0.416 0.617,0.828 0.927,1.241 l -38.666,-32.6 c -4.388,-6.372 -8.375,-13.018 -11.933,-19.898 -0.707,-1.679 -1.469,-3.334 -2.285,-4.96 m 166.869,-75.837 -0.662,0.158 c -4.559,0.306 -9.104,0.843 -13.61,1.608 -3.066,0.298 -6.115,0.78 -9.127,1.446 -9.242,2.131 -18.345,4.841 -27.252,8.115 -8.588,3.494 -17.041,7.325 -25.336,11.479 -6.728,4.316 -13.488,8.583 -20.277,12.801 -2.225,1.572 -4.433,3.161 -6.631,4.771 1.088,2.495 2.198,4.981 3.328,7.459 1.928,3.632 3.84,7.273 5.741,10.92 -3.659,1.883 -7.323,3.75 -10.993,5.604 -2.353,1.369 -4.695,2.758 -7.023,4.168 0.863,2.582 1.748,5.155 2.656,7.723 3.108,7.364 6.164,14.75 9.164,22.159 4.373,8.183 9.063,16.192 14.057,24.003 5.381,7.815 11.248,15.284 17.562,22.362 2.077,2.282 4.286,4.436 6.618,6.451 3.236,3.225 6.638,6.289 10.183,9.172 l 0.449,0.51 c 0.03,0.06 0.036,0.127 0.018,0.192 -0.018,0.056 -0.059,0.101 -0.115,0.122 -0.164,0.065 -0.34,0.073 -0.512,0.029 -0.957,-0.357 -1.869,-0.824 -2.713,-1.397 -6.582,-3.884 -12.769,-8.398 -18.474,-13.481 -9.399,-7.51 -17.901,-16.082 -25.338,-25.541 -2.58,-3.017 -4.871,-6.273 -6.844,-9.717 -3.875,-4.99 -7.424,-10.223 -10.625,-15.669 -5.818,-10.154 -11.01,-20.653 -15.545,-31.438 -0.426,-1.022 -0.84,-2.051 -1.244,-3.083 0.974,-0.523 1.957,-1.039 2.943,-1.544 5.004,-2.534 10.08,-4.922 15.221,-7.158 -2.906,-4.795 -5.672,-9.675 -8.293,-14.634 -0.514,-0.981 -1.018,-1.97 -1.512,-2.961 0.926,-0.608 1.86,-1.208 2.797,-1.797 9.93,-6.187 20.231,-11.761 30.844,-16.69 5.758,-2.599 11.678,-4.822 17.723,-6.657 3.599,-1.674 7.351,-3.009 11.199,-3.984 11.533,-3.428 23.424,-5.515 35.435,-6.22 7.592,-0.856 15.25,-0.968 22.867,-0.337 1.022,0.018 2.036,0.163 3.022,0.424 0.166,0.063 0.305,0.171 0.402,0.32 0.032,0.05 0.039,0.11 0.022,0.167 -0.022,0.062 -0.067,0.114 -0.125,0.145 M 314.6,432.775 c 0.687,-1.688 1.318,-3.397 1.89,-5.123 -0.572,-1.729 -1.203,-3.438 -1.89,-5.125 -3.629,-11.402 -6.139,-23.133 -7.496,-35.02 -0.28,-3.896 -0.62,-7.787 -1.024,-11.674 -0.139,-2.39 -0.205,-4.787 -0.203,-7.181 -0.002,-2.397 0.064,-4.793 0.203,-7.184 0.404,-3.885 0.744,-7.777 1.024,-11.672 0.117,-1.033 0.244,-2.064 0.378,-3.093 0.873,0.562 1.743,1.134 2.606,1.713 3.148,2.308 6.336,4.566 9.56,6.773 1.485,1.119 2.942,2.272 4.373,3.458 -0.142,-1.854 -0.242,-3.71 -0.296,-5.567 0.058,-3.907 0.054,-7.813 -0.012,-11.717 0.027,-1.039 0.062,-2.078 0.105,-3.115 0.92,0.484 1.834,0.976 2.746,1.476 3.342,2.022 6.715,3.991 10.122,5.904 2.031,1.268 4.025,2.598 5.98,3.983 1.957,1.382 3.875,2.82 5.746,4.313 2.94,2.574 5.92,5.099 8.94,7.576 8.921,7.972 17.05,16.795 24.263,26.343 0.981,1.535 2.012,3.037 3.092,4.502 1.74,0.53 3.5,1.002 5.275,1.415 7.381,2.345 14.606,5.152 21.627,8.4 l 38.666,32.601 c -0.459,-0.238 -0.918,-0.472 -1.379,-0.706 -6.435,-3.165 -12.927,-6.212 -19.474,-9.138 -7.151,-2.568 -14.34,-5.014 -21.572,-7.341 -11.662,-3.26 -23.487,-5.884 -35.424,-7.868 -5.846,-10.593 -12.26,-20.869 -19.219,-30.779 -4.603,-6.045 -9.305,-12.009 -14.107,-17.894 -0.862,-0.909 -1.727,-1.813 -2.596,-2.713 -0.514,-0.235 -1.031,-0.469 -1.549,-0.702 -0.059,0.564 -0.117,1.129 -0.174,1.692 0.342,1.203 0.688,2.406 1.039,3.607 2.668,7.114 5.455,14.178 8.362,21.198 5.062,11.001 10.713,21.714 16.927,32.097 -1.041,2.743 -2.046,5.498 -3.015,8.266 -2.819,-0.808 -5.649,-1.578 -8.489,-2.313 -4.89,-11.068 -10.373,-21.867 -16.431,-32.353 -4.053,-6.426 -8.211,-12.781 -12.477,-19.066 -0.779,-0.981 -1.56,-1.957 -2.345,-2.932 -0.495,-0.279 -0.989,-0.559 -1.483,-0.836 -0.109,0.557 -0.217,1.115 -0.322,1.672 0.234,1.228 0.473,2.457 0.717,3.683 2.031,7.321 4.185,14.604 6.463,21.852 4.072,11.404 8.757,22.574 14.031,33.465 -5.274,10.89 -9.959,22.058 -14.031,33.463 -2.278,7.25 -4.432,14.531 -6.463,21.851 -1.393,7.035 -2.655,14.096 -3.785,21.176 -0.077,0.512 -0.149,1.023 -0.221,1.534 l -4.289,-50.393 c 1.402,-7.609 3.283,-15.127 5.631,-22.508 m 20.601,63.478 c 0.787,-6.269 1.979,-12.478 3.567,-18.593 3.064,-11.293 6.818,-22.387 11.238,-33.221 0.422,-1.023 0.855,-2.045 1.299,-3.061 1.06,0.321 2.119,0.651 3.174,0.991 5.33,1.746 10.607,3.647 15.824,5.701 1.336,-5.445 2.832,-10.852 4.484,-16.211 0.33,-1.059 0.672,-2.113 1.024,-3.164 1.085,0.224 2.169,0.461 3.25,0.707 11.396,2.647 22.621,5.988 33.611,10.008 5.908,2.234 11.666,4.847 17.238,7.824 3.729,1.362 7.326,3.071 10.736,5.103 10.581,5.731 20.463,12.663 29.456,20.659 5.972,4.762 11.468,10.098 16.408,15.929 0.709,0.737 1.322,1.555 1.836,2.438 0.072,0.162 0.093,0.337 0.058,0.51 -0.011,0.058 -0.049,0.107 -0.101,0.134 -0.061,0.029 -0.129,0.034 -0.194,0.014 l -0.578,-0.355 c -3.439,-3.008 -7.035,-5.842 -10.76,-8.487 -2.38,-1.959 -4.876,-3.773 -7.478,-5.431 -8.041,-5.03 -16.395,-9.55 -25.006,-13.533 -8.545,-3.602 -17.23,-6.87 -26.033,-9.798 -7.811,-1.705 -15.608,-3.468 -23.391,-5.287 -2.683,-0.461 -5.369,-0.899 -8.06,-1.314 -0.996,2.533 -1.969,5.076 -2.922,7.627 -1.205,3.932 -2.428,7.858 -3.664,11.781 -3.916,-1.256 -7.828,-2.526 -11.735,-3.81 -2.632,-0.698 -5.269,-1.37 -7.914,-2.02 -1.214,2.436 -2.408,4.883 -3.582,7.34 -3.009,7.404 -6.072,14.789 -9.189,22.148 -2.693,8.879 -5.041,17.858 -7.033,26.912 -1.721,9.331 -2.854,18.762 -3.393,28.231 -0.146,3.082 -0.107,6.168 0.117,9.242 0.008,4.568 0.246,9.141 0.715,13.686 l -0.043,0.677 c -0.021,0.065 -0.064,0.116 -0.123,0.149 -0.053,0.027 -0.113,0.029 -0.168,0.006 -0.162,-0.071 -0.293,-0.19 -0.383,-0.342 -0.423,-0.93 -0.738,-1.904 -0.929,-2.906 -1.909,-7.401 -3.092,-14.969 -3.532,-22.596 -1.336,-11.957 -1.287,-24.029 0.143,-35.977 0.311,-3.959 0.992,-7.881 2.033,-11.711 m -195.534,22.192 c 3.883,-6.582 8.397,-12.771 13.48,-18.474 7.511,-9.4 16.082,-17.902 25.541,-25.34 3.018,-2.579 6.273,-4.871 9.718,-6.842 4.989,-3.876 10.222,-7.425 15.669,-10.625 10.153,-5.82 20.652,-11.01 31.437,-15.544 1.023,-0.427 2.051,-0.842 3.083,-1.246 0.524,0.975 1.039,1.958 1.544,2.944 2.534,5.003 4.922,10.079 7.158,15.221 4.795,-2.907 9.675,-5.672 14.633,-8.293 0.983,-0.515 1.971,-1.019 2.961,-1.513 0.609,0.926 1.209,1.859 1.798,2.798 6.186,9.929 11.762,20.229 16.69,30.843 2.599,5.758 4.823,11.677 6.658,17.722 1.673,3.6 3.008,7.352 3.983,11.199 3.428,11.535 5.516,23.425 6.221,35.437 0.855,7.591 0.968,15.25 0.337,22.866 -0.019,1.022 -0.163,2.035 -0.425,3.022 -0.063,0.166 -0.172,0.304 -0.32,0.402 -0.049,0.033 -0.11,0.04 -0.166,0.022 -0.063,-0.022 -0.115,-0.066 -0.147,-0.126 l -0.156,-0.66 c -0.307,-4.559 -0.844,-9.105 -1.609,-13.61 -0.297,-3.067 -0.78,-6.116 -1.446,-9.128 -2.131,-9.242 -4.841,-18.346 -8.114,-27.251 -3.494,-8.589 -7.325,-17.041 -11.48,-25.337 -4.316,-6.727 -8.583,-13.488 -12.8,-20.277 -1.573,-2.224 -3.163,-4.433 -4.772,-6.63 -2.495,1.089 -4.981,2.197 -7.458,3.328 -3.633,1.927 -7.273,3.84 -10.921,5.739 -1.883,-3.657 -3.75,-7.321 -5.603,-10.992 -1.369,-2.353 -2.759,-4.694 -4.168,-7.023 -2.582,0.863 -5.156,1.75 -7.724,2.657 -7.363,3.107 -14.75,6.163 -22.159,9.164 -8.183,4.374 -16.191,9.061 -24.003,14.057 -7.815,5.379 -15.284,11.248 -22.361,17.562 -2.282,2.075 -4.437,4.285 -6.452,6.617 -3.225,3.238 -6.289,6.638 -9.171,10.183 l -0.51,0.449 c -0.061,0.03 -0.128,0.036 -0.193,0.019 -0.055,-0.019 -0.1,-0.06 -0.122,-0.116 -0.065,-0.164 -0.073,-0.34 -0.029,-0.512 0.357,-0.956 0.824,-1.867 1.398,-2.712 m 136.257,-85.531 c 3.357,-11.625 6.088,-23.425 8.174,-35.354 1.02,-7.529 1.912,-15.071 2.678,-22.63 0.033,-1.251 0.06,-2.502 0.083,-3.752 -0.197,-0.53 -0.398,-1.062 -0.599,-1.593 -0.441,0.358 -0.881,0.716 -1.319,1.075 -0.609,1.092 -1.216,2.187 -1.817,3.285 -3.143,6.916 -6.166,13.883 -9.076,20.901 -4.199,11.359 -7.778,22.93 -10.726,34.665 -2.676,1.203 -5.335,2.442 -7.977,3.714 -1.423,-2.565 -2.879,-5.111 -4.368,-7.638 4.369,-11.284 8.128,-22.797 11.258,-34.496 1.679,-7.41 3.232,-14.843 4.661,-22.305 0.142,-1.244 0.28,-2.488 0.413,-3.731 -0.151,-0.547 -0.303,-1.094 -0.457,-1.639 -0.471,0.317 -0.94,0.635 -1.408,0.954 -0.703,1.035 -1.403,2.072 -2.099,3.112 -3.74,6.612 -7.366,13.285 -10.882,20.021 -5.184,10.944 -9.768,22.155 -13.74,33.584 -11.431,3.973 -22.641,8.557 -33.585,13.742 -6.736,3.515 -13.408,7.141 -20.021,10.881 -5.958,3.989 -11.843,8.089 -17.65,12.297 -0.415,0.308 -0.828,0.617 -1.24,0.928 l 32.6,-38.666 c 6.372,-4.389 13.017,-8.376 19.897,-11.934 1.679,-0.707 3.334,-1.469 4.96,-2.286 0.817,-1.626 1.579,-3.281 2.286,-4.96 5.497,-10.629 12.017,-20.698 19.463,-30.064 2.557,-2.951 5.068,-5.943 7.53,-8.978 1.593,-1.788 3.241,-3.529 4.936,-5.222 1.692,-1.695 3.434,-3.343 5.223,-4.935 3.033,-2.462 6.025,-4.973 8.977,-7.53 0.813,-0.648 1.632,-1.287 2.455,-1.92 0.219,1.016 0.429,2.033 0.631,3.053 0.595,3.859 1.251,7.711 1.97,11.55 0.259,1.84 0.473,3.687 0.647,5.538 1.21,-1.412 2.452,-2.794 3.727,-4.147 2.804,-2.72 5.563,-5.485 8.278,-8.293 0.752,-0.716 1.512,-1.426 2.277,-2.129 0.307,0.993 0.606,1.988 0.897,2.987 0.934,3.792 1.926,7.57 2.981,11.331 0.54,2.333 1.011,4.683 1.414,7.045 0.406,2.361 0.747,4.734 1.013,7.114 0.259,3.898 0.581,7.791 0.965,11.678 0.671,11.946 0.18,23.931 -1.471,35.784 -0.392,1.779 -0.725,3.57 -0.998,5.369 0.857,1.606 1.768,3.183 2.73,4.73 3.563,6.878 6.686,13.971 9.354,21.234 l 4.289,50.392 c -0.158,-0.492 -0.317,-0.983 -0.477,-1.474 -2.312,-6.788 -4.75,-13.535 -7.31,-20.232 -3.239,-6.872 -6.593,-13.685 -10.062,-20.445 -5.942,-10.552 -12.448,-20.768 -19.485,-30.611 m -16.3,-100.541 c 1.039,0.026 2.078,0.061 3.115,0.105 -0.485,0.919 -0.977,1.834 -1.477,2.745 -2.021,3.342 -3.991,6.715 -5.905,10.121 -1.267,2.031 -2.597,4.027 -3.982,5.982 -1.381,1.956 -2.819,3.875 -4.313,5.746 -2.574,2.939 -5.098,5.92 -7.576,8.939 -7.972,8.922 -16.795,17.05 -26.342,24.264 -1.536,0.98 -3.038,2.012 -4.502,3.091 -0.531,1.741 -1.003,3.501 -1.416,5.275 -2.344,7.382 -5.151,14.606 -8.4,21.628 l -32.6,38.666 c 0.237,-0.459 0.472,-0.919 0.705,-1.38 3.166,-6.434 6.213,-12.928 9.137,-19.474 2.569,-7.15 5.015,-14.339 7.342,-21.573 3.26,-11.662 5.884,-23.486 7.868,-35.423 10.594,-5.846 20.869,-12.259 30.779,-19.218 6.045,-4.604 12.009,-9.305 17.895,-14.109 0.907,-0.861 1.812,-1.726 2.712,-2.594 0.235,-0.515 0.47,-1.033 0.703,-1.549 -0.565,-0.06 -1.129,-0.117 -1.693,-0.174 -1.203,0.342 -2.406,0.687 -3.608,1.038 -7.113,2.668 -14.176,5.456 -21.196,8.362 -11.001,5.063 -21.714,10.713 -32.098,16.927 -2.742,-1.041 -5.498,-2.046 -8.266,-3.015 0.808,-2.819 1.578,-5.649 2.312,-8.489 11.069,-4.889 21.869,-10.373 32.354,-16.431 6.427,-4.053 12.781,-8.21 19.067,-12.477 0.98,-0.778 1.957,-1.561 2.931,-2.346 0.279,-0.493 0.559,-0.987 0.836,-1.482 -0.557,-0.109 -1.114,-0.216 -1.671,-0.321 -1.229,0.234 -2.457,0.472 -3.685,0.716 -7.32,2.032 -14.602,4.186 -21.851,6.463 -11.404,4.072 -22.573,8.758 -33.464,14.031 -10.891,-5.273 -22.06,-9.959 -33.464,-14.031 -7.249,-2.277 -14.531,-4.431 -21.851,-6.463 -7.035,-1.392 -14.095,-2.654 -21.176,-3.785 -0.511,-0.076 -1.022,-0.149 -1.534,-0.221 l 50.393,-4.289 c 7.609,1.403 15.128,3.283 22.508,5.631 1.687,0.688 3.396,1.319 5.124,1.891 1.728,-0.572 3.436,-1.203 5.124,-1.891 11.402,-3.629 23.133,-6.138 35.02,-7.496 3.896,-0.279 7.788,-0.619 11.673,-1.023 2.391,-0.139 4.787,-0.205 7.183,-0.203 2.395,-0.002 4.792,0.064 7.183,0.203 3.885,0.404 7.777,0.744 11.672,1.023 1.033,0.117 2.064,0.244 3.094,0.379 -0.563,0.873 -1.135,1.741 -1.713,2.605 -2.308,3.149 -4.567,6.336 -6.774,9.56 -1.118,1.485 -2.272,2.942 -3.458,4.373 1.854,-0.141 3.71,-0.241 5.567,-0.297 3.907,0.06 7.813,0.056 11.718,-0.01 m -228.08,13.773 c 0.929,-0.424 1.903,-0.738 2.906,-0.93 7.401,-1.908 14.968,-3.091 22.595,-3.531 11.958,-1.336 24.03,-1.287 35.977,0.143 3.958,0.31 7.881,0.992 11.711,2.033 6.269,0.787 12.479,1.978 18.593,3.566 11.294,3.065 22.388,6.819 33.221,11.239 1.024,0.421 2.045,0.855 3.06,1.298 -0.319,1.061 -0.649,2.119 -0.99,3.174 -1.745,5.33 -3.647,10.608 -5.7,15.824 5.445,1.336 10.851,2.831 16.211,4.484 1.058,0.331 2.113,0.673 3.163,1.024 -0.225,1.085 -0.46,2.169 -0.707,3.249 -2.647,11.397 -5.988,22.621 -10.008,33.612 -2.234,5.909 -4.847,11.667 -7.824,17.239 -1.362,3.728 -3.071,7.325 -5.103,10.735 -5.731,10.58 -12.663,20.464 -20.658,29.456 -4.763,5.973 -10.099,11.468 -15.93,16.407 -0.736,0.709 -1.555,1.324 -2.437,1.836 -0.162,0.074 -0.337,0.095 -0.511,0.059 -0.058,-0.012 -0.106,-0.049 -0.134,-0.102 -0.028,-0.06 -0.034,-0.128 -0.014,-0.192 l 0.356,-0.578 c 3.008,-3.441 5.842,-7.035 8.487,-10.761 1.958,-2.38 3.772,-4.877 5.431,-7.477 5.029,-8.042 9.55,-16.396 13.532,-25.007 3.603,-8.544 6.87,-17.23 9.798,-26.033 1.705,-7.81 3.469,-15.607 5.287,-23.39 0.461,-2.685 0.899,-5.37 1.314,-8.062 -2.533,-0.995 -5.075,-1.968 -7.627,-2.92 -3.931,-1.207 -7.858,-2.428 -11.78,-3.665 1.255,-3.917 2.526,-7.828 3.81,-11.734 0.697,-2.633 1.369,-5.27 2.02,-7.914 -2.437,-1.215 -4.883,-2.408 -7.341,-3.582 -7.403,-3.01 -14.788,-6.072 -22.148,-9.189 -8.879,-2.694 -17.857,-5.041 -26.913,-7.034 -9.33,-1.72 -18.76,-2.853 -28.23,-3.392 -3.081,-0.147 -6.167,-0.108 -9.241,0.117 -4.57,0.008 -9.141,0.246 -13.686,0.715 l -0.678,-0.043 c -0.064,-0.022 -0.116,-0.065 -0.149,-0.123 -0.026,-0.053 -0.029,-0.114 -0.005,-0.168 0.07,-0.162 0.19,-0.293 0.342,-0.383 m 94.811,-158.8 c 2.579,3.019 4.871,6.275 6.843,9.718 3.876,4.991 7.425,10.223 10.625,15.67 5.819,10.153 11.01,20.653 15.544,31.438 0.426,1.021 0.841,2.051 1.246,3.082 -0.976,0.523 -1.958,1.039 -2.945,1.545 -5.003,2.533 -10.079,4.922 -15.22,7.158 2.906,4.795 5.672,9.674 8.293,14.633 0.514,0.982 1.018,1.971 1.512,2.961 -0.926,0.609 -1.859,1.209 -2.797,1.797 -9.93,6.187 -20.23,11.761 -30.843,16.691 -5.759,2.598 -11.678,4.822 -17.723,6.656 -3.599,1.675 -7.351,3.01 -11.199,3.984 -11.534,3.429 -23.424,5.516 -35.437,6.221 -7.59,0.855 -15.25,0.968 -22.866,0.337 -1.021,-0.019 -2.035,-0.163 -3.021,-0.425 -0.166,-0.062 -0.305,-0.171 -0.403,-0.319 -0.032,-0.05 -0.04,-0.111 -0.023,-0.167 0.023,-0.063 0.067,-0.115 0.127,-0.146 l 0.661,-0.157 c 4.559,-0.307 9.104,-0.844 13.609,-1.608 3.068,-0.298 6.116,-0.782 9.128,-1.447 9.242,-2.131 18.346,-4.841 27.251,-8.114 8.589,-3.495 17.041,-7.325 25.337,-11.479 6.728,-4.316 13.488,-8.584 20.277,-12.801 2.224,-1.572 4.433,-3.162 6.63,-4.771 -1.088,-2.496 -2.197,-4.981 -3.328,-7.459 -1.926,-3.633 -3.84,-7.274 -5.739,-10.92 3.657,-1.883 7.321,-3.75 10.992,-5.604 2.354,-1.369 4.695,-2.759 7.024,-4.168 -0.864,-2.582 -1.75,-5.156 -2.658,-7.724 -3.107,-7.364 -6.163,-14.75 -9.164,-22.158 -4.373,-8.184 -9.061,-16.192 -14.056,-24.004 -5.38,-7.815 -11.248,-15.284 -17.563,-22.362 -2.075,-2.281 -4.285,-4.435 -6.617,-6.451 -3.237,-3.224 -6.638,-6.289 -10.183,-9.172 l -0.449,-0.51 c -0.03,-0.06 -0.036,-0.126 -0.018,-0.191 0.018,-0.057 0.059,-0.101 0.115,-0.123 0.164,-0.064 0.341,-0.072 0.513,-0.029 0.956,0.357 1.867,0.824 2.712,1.398 6.582,3.883 12.77,8.397 18.474,13.481 9.4,7.509 17.901,16.082 25.339,25.539 m 68.582,44.998 c 1.626,0.816 3.281,1.578 4.96,2.285 10.629,5.498 20.698,12.017 30.064,19.463 2.952,2.556 5.944,5.068 8.978,7.531 1.788,1.592 3.53,3.24 5.222,4.936 1.695,1.691 3.343,3.433 4.935,5.222 2.462,3.033 4.974,6.026 7.53,8.977 0.648,0.812 1.287,1.633 1.92,2.455 -1.015,0.219 -2.033,0.43 -3.052,0.631 -3.86,0.595 -7.711,1.252 -11.551,1.97 -1.84,0.258 -3.687,0.473 -5.537,0.647 1.411,1.211 2.794,2.453 4.146,3.727 2.72,2.804 5.486,5.564 8.293,8.277 0.716,0.753 1.426,1.513 2.129,2.279 -0.993,0.306 -1.988,0.605 -2.986,0.896 -3.792,0.934 -7.57,1.926 -11.332,2.982 -2.332,0.54 -4.683,1.01 -7.045,1.414 -2.361,0.405 -4.734,0.746 -7.113,1.012 -3.899,0.259 -7.791,0.581 -11.678,0.964 -11.946,0.672 -23.932,0.181 -35.784,-1.47 -1.78,-0.392 -3.571,-0.725 -5.369,-0.998 -1.607,0.857 -3.185,1.767 -4.731,2.73 -6.878,3.562 -13.97,6.685 -21.233,9.353 l -50.393,4.29 c 0.492,-0.157 0.983,-0.316 1.475,-0.477 6.788,-2.312 13.533,-4.749 20.231,-7.31 6.872,-3.239 13.685,-6.592 20.445,-10.062 10.552,-5.941 20.768,-12.447 30.611,-19.484 11.626,3.355 23.426,6.088 35.354,8.174 7.53,1.019 15.071,1.912 22.63,2.678 1.251,0.031 2.502,0.06 3.752,0.082 0.531,-0.198 1.063,-0.397 1.592,-0.598 -0.357,-0.441 -0.715,-0.881 -1.073,-1.32 -1.093,-0.61 -2.188,-1.215 -3.285,-1.817 -6.917,-3.142 -13.883,-6.166 -20.902,-9.076 -11.358,-4.199 -22.929,-7.777 -34.665,-10.727 -1.203,-2.675 -2.441,-5.334 -3.714,-7.976 2.565,-1.422 5.112,-2.879 7.638,-4.367 11.284,4.369 22.798,8.127 34.497,11.258 7.41,1.677 14.843,3.232 22.305,4.66 1.242,0.142 2.487,0.281 3.73,0.414 0.547,-0.153 1.093,-0.303 1.64,-0.457 -0.317,-0.471 -0.635,-0.942 -0.954,-1.408 -1.035,-0.704 -2.072,-1.405 -3.113,-2.1 -6.612,-3.74 -13.285,-7.365 -20.021,-10.881 -10.943,-5.185 -22.154,-9.769 -33.584,-13.742 -3.972,-11.43 -8.557,-22.641 -13.741,-33.584 -3.516,-6.736 -7.142,-13.408 -10.882,-20.022 -3.989,-5.957 -8.089,-11.841 -12.297,-17.648 -0.308,-0.416 -0.617,-0.828 -0.928,-1.242 l 38.666,32.601 c 4.389,6.371 8.376,13.018 11.934,19.897 0.707,1.68 1.47,3.334 2.286,4.961 m 82.79,-55.473 c -0.687,1.688 -1.318,3.397 -1.891,5.123 0.573,1.729 1.204,3.438 1.891,5.125 3.629,11.402 6.139,23.133 7.496,35.02 0.279,3.896 0.619,7.787 1.024,11.674 0.138,2.39 0.205,4.787 0.203,7.181 0.002,2.397 -0.065,4.793 -0.203,7.184 -0.405,3.885 -0.745,7.777 -1.024,11.672 -0.117,1.033 -0.244,2.064 -0.379,3.093 -0.873,-0.562 -1.741,-1.134 -2.604,-1.713 -3.15,-2.308 -6.337,-4.566 -9.561,-6.773 -1.484,-1.119 -2.941,-2.273 -4.373,-3.459 0.142,1.854 0.241,3.711 0.297,5.568 -0.06,3.907 -0.056,7.813 0.011,11.717 -0.027,1.039 -0.062,2.078 -0.106,3.115 -0.919,-0.484 -1.834,-0.976 -2.745,-1.476 -3.342,-2.022 -6.715,-3.992 -10.121,-5.904 -2.031,-1.268 -4.026,-2.598 -5.981,-3.983 -1.956,-1.383 -3.875,-2.82 -5.746,-4.314 -2.94,-2.573 -5.92,-5.098 -8.94,-7.575 -8.922,-7.972 -17.05,-16.796 -24.264,-26.343 -0.98,-1.535 -2.011,-3.037 -3.09,-4.502 -1.742,-0.531 -3.501,-1.002 -5.276,-1.416 -7.382,-2.344 -14.605,-5.151 -21.628,-8.399 l -38.666,-32.601 c 0.459,0.238 0.919,0.472 1.38,0.705 6.435,3.166 12.928,6.213 19.475,9.139 7.149,2.568 14.339,5.013 21.572,7.341 11.662,3.26 23.486,5.883 35.423,7.868 5.847,10.593 12.26,20.869 19.219,30.779 4.603,6.045 9.304,12.008 14.108,17.894 0.861,0.909 1.727,1.813 2.595,2.713 0.514,0.235 1.032,0.469 1.549,0.701 0.059,-0.564 0.117,-1.129 0.173,-1.691 -0.341,-1.203 -0.687,-2.406 -1.038,-3.607 -2.668,-7.114 -5.456,-14.178 -8.362,-21.198 -5.062,-11.002 -10.713,-21.715 -16.927,-32.097 1.041,-2.743 2.046,-5.498 3.015,-8.266 2.819,0.807 5.649,1.578 8.489,2.313 4.89,11.068 10.373,21.867 16.432,32.353 4.053,6.426 8.21,12.781 12.476,19.066 0.779,0.981 1.561,1.957 2.346,2.932 0.493,0.279 0.987,0.559 1.482,0.836 0.109,-0.557 0.216,-1.115 0.322,-1.672 -0.235,-1.228 -0.473,-2.457 -0.717,-3.683 -2.031,-7.321 -4.186,-14.604 -6.463,-21.852 -4.072,-11.404 -8.758,-22.574 -14.031,-33.465 5.273,-10.89 9.959,-22.058 14.031,-33.463 2.277,-7.25 4.432,-14.531 6.463,-21.851 1.393,-7.035 2.654,-14.096 3.785,-21.176 0.076,-0.512 0.15,-1.024 0.221,-1.535 l 4.289,50.394 c -1.402,7.608 -3.282,15.127 -5.631,22.508 m -20.602,-63.478 c -0.787,6.269 -1.978,12.478 -3.566,18.593 -3.064,11.293 -6.818,22.387 -11.238,33.221 -0.422,1.023 -0.856,2.045 -1.299,3.061 -1.061,-0.321 -2.119,-0.651 -3.174,-0.991 -5.33,-1.746 -10.607,-3.648 -15.824,-5.701 -1.336,5.445 -2.831,10.852 -4.483,16.211 -0.332,1.059 -0.673,2.113 -1.025,3.164 -1.085,-0.224 -2.169,-0.461 -3.249,-0.707 -11.396,-2.648 -22.621,-5.988 -33.611,-10.008 -5.909,-2.234 -11.667,-4.847 -17.239,-7.824 -3.729,-1.363 -7.326,-3.072 -10.736,-5.103 -10.58,-5.731 -20.464,-12.663 -29.456,-20.659 -5.973,-4.763 -11.468,-10.099 -16.407,-15.929 -0.709,-0.737 -1.323,-1.555 -1.836,-2.438 -0.073,-0.162 -0.095,-0.338 -0.059,-0.51 0.012,-0.058 0.049,-0.107 0.102,-0.134 0.06,-0.03 0.128,-0.034 0.192,-0.014 l 0.578,0.355 c 3.441,3.008 7.036,5.842 10.761,8.487 2.38,1.959 4.877,3.773 7.478,5.431 8.042,5.03 16.395,9.549 25.007,13.532 8.543,3.603 17.229,6.871 26.033,9.799 7.809,1.705 15.606,3.468 23.389,5.287 2.685,0.461 5.37,0.898 8.062,1.314 0.995,-2.533 1.969,-5.076 2.921,-7.627 1.206,-3.932 2.428,-7.859 3.664,-11.781 3.917,1.256 7.828,2.525 11.734,3.81 2.633,0.698 5.271,1.37 7.914,2.02 1.215,-2.436 2.409,-4.883 3.582,-7.34 3.01,-7.404 6.073,-14.789 9.19,-22.148 2.693,-8.879 5.041,-17.858 7.033,-26.912 1.721,-9.331 2.854,-18.762 3.393,-28.231 0.146,-3.082 0.107,-6.168 -0.118,-9.242 -0.007,-4.568 -0.246,-9.141 -0.714,-13.686 l 0.043,-0.677 c 0.021,-0.065 0.064,-0.116 0.123,-0.149 0.052,-0.027 0.113,-0.029 0.168,-0.006 0.162,0.071 0.292,0.19 0.382,0.342 0.424,0.93 0.739,1.904 0.93,2.906 1.908,7.401 3.092,14.969 3.531,22.596 1.336,11.957 1.287,24.029 -0.142,35.977 -0.311,3.959 -0.992,7.881 -2.034,11.711 m 59.277,63.339 c -3.355,11.625 -6.088,23.424 -8.173,35.354 -1.02,7.529 -1.913,15.07 -2.678,22.629 -0.033,1.252 -0.061,2.502 -0.082,3.752 0.197,0.531 0.396,1.062 0.597,1.594 0.442,-0.358 0.881,-0.717 1.321,-1.075 0.609,-1.093 1.215,-2.187 1.816,-3.285 3.143,-6.916 6.166,-13.883 9.076,-20.902 4.2,-11.358 7.778,-22.93 10.727,-34.664 2.676,-1.203 5.334,-2.442 7.976,-3.715 1.422,2.566 2.879,5.111 4.368,7.639 -4.37,11.283 -8.127,22.796 -11.258,34.496 -1.678,7.41 -3.233,14.843 -4.66,22.304 -0.143,1.245 -0.282,2.489 -0.414,3.731 0.152,0.547 0.302,1.094 0.457,1.64 0.47,-0.318 0.941,-0.636 1.408,-0.955 0.703,-1.035 1.404,-2.072 2.099,-3.111 3.741,-6.613 7.366,-13.285 10.881,-20.021 5.186,-10.944 9.77,-22.155 13.742,-33.584 11.43,-3.973 22.639,-8.557 33.584,-13.743 6.735,-3.515 13.409,-7.14 20.022,-10.88 5.957,-3.989 11.842,-8.09 17.648,-12.297 0.416,-0.309 0.829,-0.618 1.241,-0.928 l -32.6,38.666 c -6.371,4.389 -13.018,8.375 -19.896,11.934 -1.68,0.707 -3.334,1.468 -4.961,2.285 -0.817,1.627 -1.579,3.281 -2.286,4.961 -5.498,10.629 -12.017,20.697 -19.462,30.064 -2.559,2.951 -5.069,5.943 -7.532,8.977 -1.592,1.789 -3.24,3.529 -4.935,5.222 -1.692,1.696 -3.434,3.344 -5.223,4.936 -3.033,2.461 -6.025,4.973 -8.976,7.529 -0.813,0.649 -1.633,1.287 -2.456,1.92 -0.218,-1.016 -0.429,-2.033 -0.63,-3.053 -0.596,-3.859 -1.252,-7.711 -1.971,-11.55 -0.258,-1.84 -0.473,-3.686 -0.647,-5.538 -1.211,1.413 -2.453,2.795 -3.726,4.147 -2.805,2.721 -5.565,5.486 -8.278,8.293 -0.753,0.717 -1.513,1.426 -2.278,2.129 -0.307,-0.992 -0.606,-1.988 -0.897,-2.987 -0.933,-3.791 -1.926,-7.57 -2.981,-11.33 -0.54,-2.334 -1.011,-4.683 -1.414,-7.046 -0.406,-2.36 -0.746,-4.733 -1.013,-7.114 -0.259,-3.898 -0.581,-7.791 -0.965,-11.677 -0.671,-11.946 -0.18,-23.932 1.471,-35.784 0.392,-1.779 0.725,-3.57 0.998,-5.369 -0.857,-1.607 -1.767,-3.183 -2.73,-4.73 -3.562,-6.879 -6.685,-13.971 -9.353,-21.235 l -4.289,-50.392 c 0.157,0.492 0.315,0.984 0.476,1.474 2.312,6.789 4.749,13.536 7.31,20.233 3.239,6.871 6.594,13.685 10.062,20.445 5.941,10.551 12.447,20.768 19.484,30.611 M 452.66,91.201 c -3.883,6.582 -8.398,12.77 -13.48,18.475 -7.51,9.398 -16.082,17.9 -25.541,25.338 -3.018,2.58 -6.274,4.871 -9.717,6.843 -4.99,3.875 -10.223,7.424 -15.67,10.625 -10.152,5.819 -20.652,11.01 -31.438,15.543 -1.021,0.428 -2.05,0.842 -3.082,1.246 -0.523,-0.974 -1.039,-1.957 -1.544,-2.943 -2.534,-5.004 -4.922,-10.08 -7.159,-15.221 -4.795,2.907 -9.674,5.672 -14.633,8.293 -0.982,0.514 -1.97,1.018 -2.96,1.512 -0.61,-0.926 -1.209,-1.859 -1.797,-2.797 -6.188,-9.929 -11.762,-20.23 -16.692,-30.844 -2.597,-5.757 -4.822,-11.677 -6.656,-17.722 -1.674,-3.6 -3.009,-7.352 -3.984,-11.199 -3.428,-11.534 -5.515,-23.424 -6.221,-35.436 -0.855,-7.592 -0.967,-15.25 -0.336,-22.867 0.018,-1.022 0.163,-2.035 0.424,-3.022 0.063,-0.166 0.172,-0.304 0.32,-0.402 0.049,-0.033 0.11,-0.039 0.167,-0.021 0.062,0.021 0.114,0.066 0.146,0.125 l 0.156,0.66 c 0.307,4.56 0.844,9.105 1.609,13.611 0.298,3.066 0.78,6.115 1.446,9.127 2.131,9.242 4.842,18.346 8.115,27.252 3.494,8.588 7.324,17.041 11.478,25.336 4.317,6.728 8.584,13.488 12.801,20.277 1.572,2.225 3.162,4.434 4.772,6.631 2.496,-1.09 4.98,-2.197 7.459,-3.328 3.632,-1.928 7.273,-3.84 10.92,-5.74 1.882,3.658 3.75,7.322 5.603,10.992 1.369,2.353 2.76,4.695 4.168,7.023 2.582,-0.863 5.156,-1.75 7.725,-2.656 7.363,-3.107 14.75,-6.164 22.158,-9.164 8.183,-4.373 16.191,-9.062 24.004,-14.057 7.814,-5.38 15.283,-11.248 22.361,-17.562 2.281,-2.076 4.436,-4.285 6.451,-6.617 3.225,-3.237 6.289,-6.639 9.172,-10.184 l 0.51,-0.449 c 0.06,-0.029 0.127,-0.035 0.191,-0.018 0.057,0.018 0.102,0.059 0.123,0.116 0.065,0.164 0.073,0.339 0.03,0.511 -0.358,0.957 -0.825,1.867 -1.399,2.713"
           style="fill:#231f20;fill-opacity:1;fill-rule:nonzero;stroke:none"
           id="path130204"
           inkscape:connector-curvature="0" /></g></g></g></svg>